HIERARCHY
ROOT joint_Root
{
	OFFSET 0.0 0.0 0.0
	CHANNELS 6 Xposition Yposition Zposition Zrotation Xrotation Yrotation 
	JOINT Hips
	{
		OFFSET -0.726466 93.3139 -2.00062
		CHANNELS 6 Xposition Yposition Zposition Zrotation Xrotation Yrotation 
		JOINT Spine
		{
			OFFSET 15.7357 0.0 0.0
			CHANNELS 6 Xposition Yposition Zposition Zrotation Xrotation Yrotation 
			JOINT Chest
			{
				OFFSET 8.98455 -0.406207 0.0
				CHANNELS 6 Xposition Yposition Zposition Zrotation Xrotation Yrotation 
				JOINT Neck
				{
					OFFSET 16.3773 0.0 0.0
					CHANNELS 6 Xposition Yposition Zposition Zrotation Xrotation Yrotation 
					JOINT Head
					{
						OFFSET 6.45672 0.0 0.0
						CHANNELS 6 Xposition Yposition Zposition Zrotation Xrotation Yrotation 
						End Site
						{
							OFFSET 0.0 0.0 0.0
						}
					}
				}
				JOINT Shoulder_L
				{
					OFFSET 12.9942 -0.242716 4.98039
					CHANNELS 6 Xposition Yposition Zposition Zrotation Xrotation Yrotation 
					JOINT UpperArm_L
					{
						OFFSET 5.34809 0.0 0.0
						CHANNELS 6 Xposition Yposition Zposition Zrotation Xrotation Yrotation 
						JOINT LowerArm_L
						{
							OFFSET 24.3286 1.87007e-05 0.0
							CHANNELS 6 Xposition Yposition Zposition Zrotation Xrotation Yrotation 
							JOINT Hand_L
							{
								OFFSET 22.2916 0.0 0.0
								CHANNELS 6 Xposition Yposition Zposition Zrotation Xrotation Yrotation 
								End Site
								{
									OFFSET 0.0 0.0 0.0
								}
							}
						}
					}
				}
				JOINT Shoulder_R
				{
					OFFSET 12.9945 -0.242716 -4.98039
					CHANNELS 6 Xposition Yposition Zposition Zrotation Xrotation Yrotation 
					JOINT UpperArm_R
					{
						OFFSET -5.34813 0.0 0.0
						CHANNELS 6 Xposition Yposition Zposition Zrotation Xrotation Yrotation 
						JOINT LowerArm_R
						{
							OFFSET -24.3289 0.000322201 0.0
							CHANNELS 6 Xposition Yposition Zposition Zrotation Xrotation Yrotation 
							JOINT Hand_R
							{
								OFFSET -22.2915 -0.000108084 0.0
								CHANNELS 6 Xposition Yposition Zposition Zrotation Xrotation Yrotation 
								End Site
								{
									OFFSET 0.0 0.0 0.0
								}
							}
						}
					}
				}
			}
		}
		JOINT UpperLeg_L
		{
			OFFSET -2.19248 -6.46944 0.0
			CHANNELS 6 Xposition Yposition Zposition Zrotation Xrotation Yrotation 
			JOINT LowerLeg_L
			{
				OFFSET 39.0811 0.0 -1.23785e-05
				CHANNELS 6 Xposition Yposition Zposition Zrotation Xrotation Yrotation 
				JOINT Foot_L
				{
					OFFSET 40.9854 0.0 -1.26872e-05
					CHANNELS 6 Xposition Yposition Zposition Zrotation Xrotation Yrotation 
					JOINT Toes_L
					{
						OFFSET 11.7543 0.0 0.0
						CHANNELS 6 Xposition Yposition Zposition Zrotation Xrotation Yrotation 
						End Site
						{
							OFFSET 0.0 0.0 0.0
						}
					}
				}
			}
		}
		JOINT UpperLeg_R
		{
			OFFSET -2.19251 6.46944 0.0
			CHANNELS 6 Xposition Yposition Zposition Zrotation Xrotation Yrotation 
			JOINT LowerLeg_R
			{
				OFFSET -39.0811 -0.00228153 -0.0401928
				CHANNELS 6 Xposition Yposition Zposition Zrotation Xrotation Yrotation 
				JOINT Foot_R
				{
					OFFSET -40.9854 0.0 0.0
					CHANNELS 6 Xposition Yposition Zposition Zrotation Xrotation Yrotation 
					JOINT Toes_R
					{
						OFFSET -11.7543 0.0 0.0
						CHANNELS 6 Xposition Yposition Zposition Zrotation Xrotation Yrotation 
						End Site
						{
							OFFSET 0.0 0.0 0.0
						}
					}
				}
			}
		}
	}
}
MOTION
Frames:	4
Frame Time:	0.0333333
0.000000 0.000000 0.000000 0.000000 0.000000 -0.000000 -0.511085 92.923900 -0.680396 88.997700 -2.670840 2.583910 15.735700 0.000005 -0.000001 95.845300 87.606300 -96.017100 8.984550 -0.406207 -0.000000 -3.002880 0.503489 -0.330382 16.377300 -0.000001 -0.000001 4.587200 -2.461100 3.637190 6.456720 -0.000001 -0.000000 9.218660 -1.919590 -3.717890 12.994200 -0.242716 4.980390 -87.833700 -6.889630 -72.497500 5.348090 -0.000007 -0.000001 -81.396300 -29.781100 -87.952800 24.328600 0.000019 0.000005 16.083300 1.482880 -84.871200 22.291600 -0.000001 0.000005 15.287500 5.571500 -9.765280 12.994500 -0.242716 -4.980390 89.866800 0.441170 -73.204600 -5.348130 -0.000001 -0.000004 -70.597000 -29.323900 -94.965600 -24.328900 0.000322 -0.000009 16.166500 2.951840 -79.928500 -22.291500 -0.000108 -0.000004 19.136400 5.394850 -2.770740 -2.192480 -6.469440 -0.000000 -176.533000 -8.432420 -1.604940 39.081100 -0.000007 -0.000012 -0.059382 0.190461 17.316500 40.985400 -0.000006 -0.000013 -0.245174 4.205760 -63.249800 11.754300 -0.000000 0.000003 -0.000001 -0.000020 -16.578300 -2.192510 6.469440 -0.000001 178.905000 11.210400 -179.465000 -39.081100 -0.002282 -0.040193 -0.055659 0.229231 14.431400 -40.985400 0.000008 0.000006 0.920798 7.452560 -62.601800 -11.754300 -0.000006 -0.000006 -0.005662 -0.067735 -19.329600
0.000000 0.000000 0.000000 0.000000 0.000000 -0.000000 -0.521004 92.931300 -0.726287 89.002100 -2.624440 2.579800 15.735700 0.000005 -0.000001 95.872500 87.610800 -96.041000 8.984550 -0.406207 -0.000000 -3.011920 0.504540 -0.323677 16.377300 -0.000001 -0.000001 4.522850 -2.487460 3.614890 6.456720 -0.000001 -0.000000 9.187590 -1.995800 -3.702110 12.994200 -0.242716 4.980390 -87.830700 -6.870400 -72.429100 5.348090 -0.000007 -0.000001 -81.281900 -29.735200 -87.951500 24.328600 0.000019 0.000005 15.905600 1.529740 -84.648100 22.291600 -0.000001 0.000005 15.289000 5.571390 -9.759420 12.994500 -0.242716 -4.980390 89.861700 0.456854 -73.163400 -5.348130 -0.000001 -0.000004 -70.478000 -29.268000 -95.099500 -24.328900 0.000322 -0.000009 16.196900 3.036220 -79.667100 -22.291500 -0.000108 -0.000004 19.145800 5.394710 -2.766520 -2.192480 -6.469440 -0.000000 -176.529000 -8.419370 -1.634410 39.081100 -0.000007 -0.000012 -0.059296 0.190612 17.279900 40.985400 -0.000006 -0.000013 -0.248567 4.253780 -63.189400 11.754300 -0.000000 0.000003 -0.000002 -0.000031 -16.578700 -2.192510 6.469440 -0.000001 178.922000 11.263300 -179.491000 -39.081100 -0.002282 -0.040193 -0.055223 0.227962 14.405600 -40.985400 0.000008 0.000006 0.930991 7.424810 -62.555200 -11.754300 -0.000006 -0.000006 -0.005785 -0.068872 -19.375900
0.000000 0.000000 0.000000 0.000000 0.000000 -0.000000 -0.532710 92.934900 -0.790213 89.038400 -2.548390 2.578370 15.735700 0.000005 -0.000001 95.677100 87.608600 -95.859600 8.984550 -0.406207 -0.000000 -3.006030 0.490064 -0.352185 16.377300 -0.000001 -0.000001 4.526870 -2.534980 3.646560 6.456720 -0.000001 -0.000000 9.090450 -2.002280 -3.778410 12.994200 -0.242716 4.980390 -87.833000 -6.847880 -72.393100 5.348090 -0.000007 -0.000001 -81.235600 -29.750100 -88.040000 24.328600 0.000019 0.000005 15.817700 1.575890 -84.455600 22.291600 -0.000001 0.000005 15.189600 5.572590 -9.821470 12.994500 -0.242716 -4.980390 89.858000 0.466898 -73.087600 -5.348130 -0.000001 -0.000004 -70.498200 -29.213800 -95.233400 -24.328900 0.000322 -0.000009 16.061600 3.073760 -79.451400 -22.291500 -0.000108 -0.000004 19.112900 5.394590 -2.762500 -2.192480 -6.469440 -0.000000 -176.576000 -8.314810 -1.685530 39.081100 -0.000007 -0.000012 -0.059081 0.190161 17.259500 40.985400 -0.000006 -0.000013 -0.258925 4.209960 -63.126000 11.754300 -0.000000 0.000003 -0.000002 -0.000023 -16.578400 -2.192510 6.469440 -0.000001 178.895000 11.298400 -179.557000 -39.081100 -0.002282 -0.040193 -0.055355 0.227575 14.460300 -40.985400 0.000008 0.000006 0.939812 7.420290 -62.548900 -11.754300 -0.000006 -0.000006 -0.005827 -0.069253 -19.391500
0.000000 0.000000 0.000000 0.000000 0.000000 -0.000000 -0.544510 92.940700 -0.847698 89.017100 -2.506980 2.592280 15.735700 0.000005 -0.000001 95.416500 87.597500 -95.582100 8.984550 -0.406207 -0.000000 -2.981770 0.468911 -0.318873 16.377300 -0.000001 -0.000001 4.484430 -2.508560 3.583090 6.456720 -0.000001 -0.000000 9.125360 -2.006310 -3.803160 12.994200 -0.242716 4.980390 -87.830100 -6.831650 -72.331300 5.348090 -0.000007 -0.000001 -81.171500 -29.799800 -88.010800 24.328600 0.000019 0.000005 15.789200 1.611260 -84.321300 22.291600 -0.000001 0.000005 15.175400 5.572130 -9.797900 12.994500 -0.242716 -4.980390 89.859900 0.459813 -73.056500 -5.348130 -0.000001 -0.000004 -70.359000 -29.239500 -95.230100 -24.328900 0.000322 -0.000009 15.678100 3.046770 -79.278500 -22.291500 -0.000108 -0.000004 19.228700 5.397060 -2.842080 -2.192480 -6.469440 -0.000000 -176.537000 -8.370970 -1.717330 39.081100 -0.000007 -0.000012 -0.058542 0.188353 17.265800 40.985400 -0.000006 -0.000013 -0.254653 4.303280 -63.084600 11.754300 -0.000000 0.000003 -0.000002 -0.000027 -16.578500 -2.192510 6.469440 -0.000001 178.939000 11.312900 -179.563000 -39.081100 -0.002282 -0.040193 -0.054977 0.226722 14.422700 -40.985400 0.000008 0.000006 0.948341 7.375590 -62.493200 -11.754300 -0.000006 -0.000006 -0.005883 -0.069770 -19.412600
